<?xml version="1.0" encoding="utf-8"?>
<!-- Generator: Adobe Illustrator 16.0.0, SVG Export Plug-In . SVG Version: 6.00 Build 0)  -->
<!DOCTYPE svg PUBLIC "-//W3C//DTD SVG 1.1//EN" "http://www.w3.org/Graphics/SVG/1.1/DTD/svg11.dtd">
<svg version="1.1" xmlns="http://www.w3.org/2000/svg" xmlns:xlink="http://www.w3.org/1999/xlink" x="0px" y="0px" width="262px"
	 height="100.667px" viewBox="0 0 262 100.667" enable-background="new 0 0 262 100.667" xml:space="preserve">
<g id="Capa_2">
</g>
<g id="Capa_1">
	<g>
		<g>
			<path fill="#FFFFFF" d="M105.265,49.568c-0.044,0.332-0.149,0.604-0.315,0.813c-0.166,0.211-0.365,0.377-0.597,0.499
				c-0.232,0.122-0.48,0.208-0.746,0.257c-0.266,0.051-0.52,0.075-0.763,0.075c-0.288,0-0.567-0.03-0.837-0.091
				c-0.271-0.062-0.511-0.155-0.721-0.283c-0.21-0.127-0.376-0.281-0.498-0.465c-0.122-0.182-0.183-0.39-0.183-0.622
				c0-0.454,0.022-0.872,0.066-1.253c0.044-0.383,0.11-0.767,0.199-1.154c0.283-1.296,0.546-2.5,0.789-3.612
				s0.523-2.156,0.842-3.131c0.319-0.975,0.532-1.933,0.64-2.874c0.107-0.94,0.216-1.881,0.323-2.822
				c0.108-0.94,0.153-1.92,0.136-2.938c-0.018-1.02-0.037-2.11-0.057-3.275c0-0.101,0-0.229,0-0.386
				c0-0.157-0.016-0.305-0.047-0.443c-0.032-0.138-0.086-0.257-0.166-0.356c-0.079-0.1-0.197-0.149-0.354-0.149
				c-0.252,0-0.56,0.092-0.922,0.273c-0.363,0.184-0.743,0.43-1.142,0.739c-0.399,0.31-0.799,0.673-1.198,1.087
				c-0.399,0.416-0.767,0.861-1.103,1.337c-0.063,0.166-0.163,0.285-0.299,0.356c-0.137,0.072-0.289,0.108-0.457,0.108
				c-0.052,0-0.107-0.047-0.166-0.142c-0.058-0.094-0.11-0.207-0.158-0.34c-0.047-0.133-0.086-0.273-0.118-0.424
				c-0.032-0.148-0.047-0.284-0.047-0.406c0-0.066,0.022-0.122,0.066-0.166c0.398-1.306,0.849-2.398,1.353-3.279
				c0.503-0.879,1.035-1.582,1.594-2.107c0.559-0.526,1.129-0.899,1.71-1.121s1.137-0.332,1.668-0.332
				c0.686,0,1.256,0.13,1.71,0.391c0.454,0.26,0.813,0.625,1.079,1.096c0.266,0.47,0.451,1.037,0.556,1.701
				c0.105,0.664,0.158,1.4,0.158,2.208c0,0.62-0.061,1.347-0.182,2.182s-0.249,1.714-0.382,2.637s-0.304,1.839-0.511,2.747
				c-0.207,0.908-0.408,1.757-0.603,2.545c0.359-1.472,0.782-2.886,1.269-4.242c0.487-1.355,1.02-2.623,1.597-3.801
				c0.577-1.18,1.19-2.247,1.84-3.205c0.65-0.957,1.319-1.778,2.009-2.465c0.689-0.687,1.386-1.218,2.092-1.594
				s1.406-0.564,2.101-0.564c0.509,0,0.979,0.11,1.411,0.332s0.802,0.564,1.112,1.029s0.55,1.052,0.722,1.76
				c0.171,0.708,0.257,1.55,0.257,2.523c0,0.089-0.008,0.227-0.025,0.415s-0.039,0.404-0.066,0.647
				c-0.028,0.243-0.061,0.506-0.1,0.789c-0.039,0.281-0.075,0.562-0.108,0.838c-0.089,0.664-0.183,1.384-0.282,2.158l0.349-0.017
				c0.431-1.638,0.961-3.11,1.591-4.416s1.336-2.415,2.121-3.329c0.784-0.912,1.629-1.612,2.535-2.1
				c0.906-0.487,1.845-0.73,2.817-0.73c0.67,0,1.266,0.199,1.787,0.598c0.522,0.398,0.958,0.938,1.31,1.619
				c0.351,0.68,0.62,1.477,0.807,2.391c0.187,0.912,0.28,1.878,0.28,2.896c0,0.952-0.093,1.948-0.28,2.988
				c-0.187,1.041-0.372,2.076-0.557,3.104c-0.185,1.029-0.366,2.041-0.545,3.036s-0.348,1.938-0.508,2.829
				c-0.16,0.893-0.306,1.713-0.437,2.462c-0.131,0.75-0.197,1.317-0.197,1.702c0,0.483,0.118,0.834,0.354,1.051
				s0.58,0.325,1.031,0.325c0.255,0,0.523-0.069,0.805-0.207c0.282-0.139,0.564-0.321,0.847-0.549
				c0.282-0.227,0.562-0.486,0.838-0.779c0.277-0.294,0.542-0.596,0.797-0.905c0.587-0.708,1.168-1.521,1.743-2.44
				c0,0.011,0.05,0.127,0.149,0.349c0.078,0.188,0.205,0.509,0.382,0.963c0.177,0.454,0.426,1.106,0.747,1.959
				c-0.553,0.974-1.123,1.799-1.71,2.474c-0.586,0.675-1.184,1.226-1.793,1.652c-0.608,0.426-1.226,0.732-1.851,0.921
				c-0.625,0.188-1.246,0.282-1.861,0.282c-0.598,0-1.181-0.105-1.75-0.315c-0.57-0.21-1.076-0.522-1.518-0.938
				c-0.442-0.414-0.796-0.93-1.062-1.543c-0.266-0.615-0.398-1.32-0.398-2.117c0-0.089,0.002-0.183,0.008-0.282
				c0.005-0.1,0.014-0.199,0.025-0.299c0.044-0.741,0.142-1.536,0.294-2.383c0.152-0.848,0.31-1.725,0.472-2.634
				c0.163-0.908,0.328-1.83,0.496-2.766s0.334-1.869,0.501-2.799c0.167-0.931,0.33-1.844,0.489-2.742
				c0.159-0.896,0.239-1.68,0.239-2.349c0-0.498-0.017-0.949-0.05-1.353c-0.034-0.404-0.101-0.748-0.201-1.029
				c-0.1-0.283-0.245-0.501-0.434-0.656s-0.44-0.232-0.752-0.232c-0.627,0-1.219,0.204-1.774,0.612
				c-0.556,0.408-1.083,0.971-1.58,1.688s-0.961,1.565-1.393,2.547c-0.432,0.982-0.84,2.044-1.225,3.186
				c-0.384,1.141-0.711,2.337-0.979,3.586c-0.268,1.25-0.563,2.543-0.884,3.881s-0.568,2.604-0.739,3.798
				c-0.172,1.194-0.365,2.343-0.579,3.445c-0.077,0.311-0.195,0.573-0.354,0.79c-0.16,0.216-0.343,0.391-0.55,0.523
				s-0.427,0.229-0.659,0.29c-0.231,0.062-0.463,0.092-0.695,0.092s-0.461-0.044-0.688-0.133c-0.226-0.089-0.425-0.229-0.597-0.424
				c-0.171-0.193-0.309-0.439-0.414-0.738s-0.157-0.664-0.157-1.096c-0.214-0.288-0.253-0.784-0.12-1.489
				c0.133-0.706,0.295-1.544,0.485-2.515c0.19-0.972,0.411-2.055,0.664-3.251c0.253-1.195,0.483-2.388,0.69-3.577
				c0.208-1.189,0.429-2.376,0.664-3.561s0.353-2.275,0.353-3.271c0-0.687-0.018-1.301-0.052-1.843s-0.115-1.002-0.241-1.378
				s-0.307-0.664-0.542-0.863s-0.547-0.299-0.937-0.299c-0.321,0-0.688,0.21-1.101,0.631c-0.413,0.421-0.857,1.002-1.333,1.743
				c-0.476,0.741-0.966,1.612-1.471,2.614s-1.006,2.083-1.504,3.245s-0.98,2.377-1.444,3.644c-0.464,1.268-0.854,2.544-1.168,3.831
				c-0.315,1.287-0.62,2.537-0.916,3.749S105.515,48.544,105.265,49.568z"/>
			<path fill="#FFFFFF" d="M146.061,38.396c0.321,0.642,0.562,1.319,0.722,2.034c0.16,0.713,0.241,1.519,0.241,2.415
				c0,0.653-0.072,1.312-0.216,1.976c-0.144,0.664-0.352,1.306-0.623,1.926c-0.271,0.62-0.604,1.201-0.996,1.743
				c-0.393,0.542-0.841,1.013-1.345,1.411c-0.504,0.398-1.054,0.714-1.652,0.946s-1.234,0.349-1.909,0.349
				c-0.974,0-1.807-0.213-2.499-0.639c-0.692-0.427-1.259-0.982-1.702-1.669c-0.443-0.687-0.767-1.461-0.971-2.324
				c-0.205-0.863-0.307-1.737-0.307-2.623c0-1.461,0.183-2.72,0.548-3.776c0.365-1.058,0.888-1.977,1.569-2.756
				c0.681-0.781,1.513-1.395,2.499-1.844c0.985-0.447,2.092-0.672,3.32-0.672c1.051,0,2.036,0.163,2.955,0.49
				c0.918,0.326,1.779,0.764,2.582,1.311c0.802,0.549,1.549,1.237,2.241,2.067c0.691,0.83,1.336,1.621,1.934,2.374l-0.315,2.341
				c-0.299-0.398-0.703-0.83-1.212-1.295c-0.509-0.465-1.049-0.979-1.619-1.544c-0.57-0.564-1.132-1.043-1.685-1.436
				c-0.554-0.394-1.029-0.723-1.428-0.988L146.061,38.396z M140.931,48.008c0.376,0,0.741-0.191,1.096-0.572
				c0.354-0.383,0.664-0.863,0.93-1.445c0.266-0.58,0.479-1.283,0.639-2.107c0.16-0.825,0.241-1.559,0.241-2.2
				c0-0.509-0.039-0.982-0.116-1.419c-0.078-0.438-0.194-0.816-0.349-1.138c-0.155-0.321-0.354-0.575-0.598-0.764
				c-0.244-0.188-0.537-0.282-0.88-0.282c-0.454,0-0.886,0.193-1.295,0.581c-0.41,0.388-0.77,0.883-1.079,1.485
				c-0.31,0.604-0.554,1.271-0.73,2.001c-0.177,0.73-0.266,1.555-0.266,2.474c0,0.465,0.044,0.902,0.133,1.312
				c0.088,0.409,0.227,0.767,0.415,1.071c0.188,0.304,0.437,0.547,0.747,0.73C140.128,47.917,140.499,48.008,140.931,48.008z"/>
			<path fill="#FFFFFF" d="M159.69,51.196c0.387,2.135,0.581,3.823,0.581,5.065s-0.111,2.288-0.332,3.137
				c-0.244,0.849-0.587,1.57-1.029,2.165c-0.93,1.234-2.247,1.852-3.951,1.852c-0.819,0-1.539-0.326-2.158-0.978
				c-0.687-0.719-1.029-1.631-1.029-2.735c0-1.122,0.231-2.503,0.693-4.142c0.462-1.641,0.839-2.979,1.132-4.018
				s0.569-2.039,0.831-3.003c-0.266,0.044-0.65,0.066-1.154,0.066c-0.504,0-1.065-0.166-1.685-0.498
				c-0.631-0.31-1.168-0.741-1.61-1.295c-0.93-1.14-1.395-2.513-1.395-4.117c0-1.129,0.243-2.214,0.73-3.254
				c0.487-1.04,1.079-1.893,1.776-2.557c1.494-1.438,3.198-2.152,5.113-2.142c1.583,0,2.794,0.438,3.636,1.312
				c0.73,0.764,1.101,1.776,1.112,3.038c0,0.442-0.05,0.824-0.149,1.146s-0.241,0.77-0.423,1.345s-0.338,1.087-0.465,1.536
				c-0.127,0.447-0.257,0.896-0.39,1.344c-0.133,0.449-0.249,0.853-0.349,1.213c-0.1,0.359-0.183,0.655-0.249,0.888
				s-0.103,0.352-0.108,0.356c-0.006,0.006,0.014,0.095,0.058,0.266c0.044,0.172,0.1,0.401,0.166,0.689
				c0.21,0.089,0.479,0.133,0.805,0.133c0.326,0,0.747-0.139,1.262-0.415s1.043-0.611,1.585-1.005
				c0.542-0.393,1.068-0.799,1.577-1.22c0.509-0.421,0.946-0.78,1.312-1.079v3.719C163.769,49.825,161.804,50.887,159.69,51.196z
				 M157.267,38.462c-0.354-0.354-0.772-0.531-1.253-0.531s-0.952,0.139-1.411,0.415c-0.459,0.276-0.847,0.628-1.162,1.055
				c-0.315,0.426-0.584,0.974-0.805,1.643c-0.222,0.67-0.332,1.201-0.332,1.594c0,0.394,0.033,0.797,0.1,1.213
				c0.066,0.414,0.199,0.805,0.398,1.17c0.454,0.853,1.173,1.317,2.158,1.395c-0.011-0.066,0.047-0.246,0.174-0.539
				c0.127-0.294,0.21-0.643,0.249-1.047c0.039-0.403,0.146-0.728,0.324-0.971c-0.066-0.166,0.119-0.738,0.556-1.719
				C156.699,41.161,157.034,39.934,157.267,38.462z M157.19,50.73c-0.044,0.149-0.12,0.433-0.226,0.849l-0.468,1.523
				c-1.079,3.513-1.674,5.64-1.787,6.383c0,0.215,0.055,0.393,0.166,0.532c0.11,0.14,0.321,0.21,0.631,0.21
				c0.31,0,0.608-0.132,0.896-0.394c0.299-0.241,0.537-0.581,0.714-1.019c0.332-0.799,0.498-1.746,0.498-2.841
				C157.615,53.819,157.474,52.071,157.19,50.73z"/>
			<path fill="#FFFFFF" d="M176.956,35.723c0,0.3-0.01,0.706-0.03,1.221c-0.02,0.516-0.087,1.077-0.2,1.687
				c-0.113,0.608-0.25,1.345-0.411,2.209c-0.161,0.865-0.294,1.58-0.399,2.146c-0.105,0.565-0.198,1.061-0.276,1.484
				c-0.079,0.424-0.118,0.731-0.118,0.924c0,0.312,0.004,0.598,0.014,0.858c0.01,0.262,0.039,0.489,0.086,0.684
				c0.048,0.194,0.122,0.345,0.223,0.45s0.247,0.158,0.438,0.158c0.244,0,0.54-0.061,0.888-0.184
				c0.349-0.122,0.72-0.286,1.112-0.491c0.393-0.206,0.794-0.439,1.204-0.7c0.41-0.261,0.8-0.536,1.17-0.824
				c0.371-0.289,0.708-0.575,1.013-0.858c0.305-0.284,0.551-0.548,0.739-0.792c0,0.366,0.003,0.7,0.008,1
				c0.006,0.3,0.008,0.586,0.008,0.858s0.003,0.553,0.008,0.842c0.006,0.289,0.008,0.611,0.008,0.966
				c-0.243,0.24-0.545,0.497-0.905,0.771c-0.359,0.273-0.758,0.546-1.195,0.819c-0.437,0.272-0.902,0.535-1.395,0.786
				c-0.492,0.251-0.988,0.472-1.486,0.663s-0.984,0.344-1.459,0.459c-0.476,0.114-0.916,0.172-1.322,0.172
				c-0.414,0-0.767-0.082-1.061-0.245c-0.293-0.164-0.546-0.394-0.758-0.688c-0.212-0.295-0.392-0.646-0.539-1.057
				c-0.147-0.408-0.275-0.864-0.383-1.366c-0.399,0.514-0.82,0.985-1.264,1.417s-0.895,0.806-1.354,1.122s-0.925,0.565-1.396,0.745
				c-0.471,0.181-0.928,0.271-1.371,0.271c-0.364,0-0.706-0.061-1.025-0.183c-0.319-0.121-0.604-0.326-0.852-0.613
				c-0.248-0.288-0.444-0.667-0.587-1.138c-0.143-0.47-0.215-1.054-0.215-1.75c0.011-1.449,0.122-2.562,0.332-3.336
				c0.331-1.13,0.641-2.813,0.928-5.051c0.03-0.163,0.071-0.387,0.123-0.67c0.052-0.283,0.13-0.591,0.236-0.923
				c0.105-0.332,0.235-0.67,0.39-1.013c0.155-0.343,0.337-0.653,0.548-0.93c0.21-0.276,0.457-0.504,0.739-0.681
				s0.6-0.271,0.955-0.282c0.586,0.028,1.007,0.123,1.262,0.285c0.254,0.162,0.382,0.363,0.382,0.603
				c-0.1,0.746-0.212,1.464-0.335,2.152c-0.125,0.688-0.249,1.382-0.375,2.081c-0.125,0.698-0.265,1.476-0.419,2.331
				s-0.277,1.541-0.37,2.058s-0.168,0.934-0.225,1.252s-0.085,0.483-0.085,0.495c0,0.205,0.02,0.402,0.059,0.591
				c0.039,0.188,0.097,0.356,0.175,0.505c0.078,0.148,0.178,0.269,0.3,0.36c0.122,0.091,0.267,0.137,0.433,0.137
				c0.244,0,0.494-0.064,0.75-0.194c0.255-0.13,0.494-0.318,0.716-0.566c0.233-0.225,0.438-0.519,0.616-0.879
				c0.178-0.349,0.311-0.755,0.4-1.217l1.83-9.047c0.053-0.266,0.27-0.489,0.649-0.673c0.379-0.182,0.81-0.273,1.291-0.273
				c0.545,0,0.978,0.1,1.298,0.299S176.956,35.414,176.956,35.723z"/>
			<path fill="#FFFFFF" d="M186.162,51.196c-1.034,0-1.938-0.191-2.713-0.574c-0.775-0.383-1.421-0.898-1.938-1.546
				c-0.517-0.648-0.904-1.397-1.163-2.248s-0.388-1.743-0.388-2.679c0-0.611,0.115-1.34,0.347-2.187s0.471-1.598,0.718-2.254
				c0.248-0.655,0.559-1.28,0.933-1.876c0.374-0.595,0.812-1.119,1.313-1.572c0.501-0.454,1.063-0.814,1.685-1.082
				s1.313-0.401,2.072-0.401c0.621,0,1.197,0.1,1.729,0.299c0.532,0.198,0.994,0.478,1.388,0.837
				c0.393,0.359,0.701,0.793,0.922,1.302s0.333,1.078,0.333,1.708c0,0.671-0.225,1.423-0.674,2.256
				c-0.449,0.834-0.973,1.548-1.572,2.143c-0.599,0.596-1.312,1.126-2.138,1.592c-0.827,0.465-1.722,0.827-2.687,1.087
				c0.167,0.293,0.331,0.536,0.492,0.731c0.161,0.194,0.325,0.346,0.492,0.454c0.167,0.108,0.341,0.184,0.524,0.228
				c0.183,0.043,0.381,0.064,0.592,0.064c0.664,0,1.364-0.13,2.1-0.39c0.736-0.26,1.453-0.584,2.15-0.974s1.355-0.814,1.976-1.274
				c0.62-0.46,1.146-0.896,1.577-1.307l2.142,2.175c-0.974,1.037-2.009,1.955-3.104,2.753c-0.476,0.342-0.988,0.679-1.536,1.009
				s-1.124,0.624-1.727,0.881c-0.604,0.256-1.229,0.461-1.876,0.615C187.482,51.119,186.826,51.196,186.162,51.196z M183.945,43.289
				c0.4,0,0.836-0.1,1.308-0.3s0.911-0.457,1.316-0.771c0.406-0.313,0.803-0.735,1.191-1.266c0.389-0.53,0.583-0.969,0.583-1.315
				c0-0.486-0.092-0.887-0.275-1.201c-0.184-0.313-0.408-0.471-0.675-0.471c-0.478,0-0.886,0.087-1.225,0.26
				c-0.339,0.174-0.622,0.397-0.85,0.674c-0.228,0.276-0.411,0.59-0.55,0.941c-0.139,0.352-0.3,0.787-0.483,1.307
				c-0.184,0.52-0.286,0.947-0.309,1.282C183.956,42.764,183.945,43.05,183.945,43.289z"/>
			<path fill="#FFFFFF" d="M195.014,66.411c-0.476-0.127-0.916-0.32-1.32-0.58c-0.404-0.261-0.73-0.623-0.979-1.088
				s-0.401-1.007-0.457-1.627c-0.088-1.162,0.232-2.396,0.963-3.702c0.421-0.73,0.711-1.239,0.872-1.527
				c0.161-0.288,0.421-0.694,0.78-1.22c0.36-0.526,0.728-0.999,1.104-1.42c0.775-0.874,1.414-1.574,1.917-2.1
				c0.504-0.526,1.104-1.094,1.801-1.702l0.332-1.974c-1.239,1.172-2.446,1.758-3.619,1.758c-0.863,0-1.657-0.26-2.382-0.78
				c-0.725-0.521-1.27-1.168-1.635-1.942c-0.664-1.384-0.681-2.999-0.05-4.848c0.576-1.727,1.157-3.151,1.743-4.275
				c0.587-1.123,1.345-2.1,2.274-2.93c1.351-1.206,2.662-1.81,3.935-1.81c0.576,0,0.996,0.162,1.262,0.486
				c0.033,0.034,0.083,0.098,0.149,0.193c0.066,0.095,0.114,0.153,0.141,0.176c0.028,0.022,0.075,0.067,0.141,0.135
				c0.066,0.066,0.127,0.108,0.183,0.125c0.056,0.018,0.127,0.042,0.216,0.076c0.089,0.033,0.188,0.056,0.3,0.067
				c0.111,0.011,0.239,0.017,0.384,0.017l0.731-0.017c0.498,0,0.841,0.149,1.029,0.449c0.066,0.123,0.139,0.283,0.216,0.483
				c0.133,0.345,0.149,1.483,0.05,3.417c-0.033,0.6-0.174,1.342-0.423,2.228s-0.412,1.869-0.49,2.95
				c-0.077,1.082-0.199,2.489-0.365,4.222c0.321-0.188,0.664-0.42,1.029-0.695c1.306-0.982,2.784-2.81,4.433-5.48l1.079,3.686
				c-0.31,0.615-0.857,1.323-1.644,2.124c-0.797,0.791-1.472,1.4-2.025,1.828c-0.1,0.066-0.177,0.115-0.232,0.148
				c-1.063,0.687-1.832,1.19-2.308,1.512c-0.299,0.199-0.503,0.56-0.614,1.08c-0.11,0.521-0.232,1.495-0.365,2.924
				c-0.054,0.412-0.094,0.729-0.121,0.952c-0.064,0.504-0.127,1-0.189,1.487c-0.062,0.486-0.173,1.037-0.333,1.651
				c-0.16,0.614-0.346,1.179-0.556,1.693c-0.21,0.514-0.484,1.028-0.822,1.543c-0.337,0.514-0.716,0.948-1.137,1.303
				c-0.42,0.354-0.924,0.641-1.511,0.862c-0.586,0.222-1.229,0.332-1.926,0.332C196.01,66.602,195.49,66.539,195.014,66.411z
				 M197.426,58.111c-0.753,1.223-1.351,2.465-1.793,3.727c-0.365,1.052-0.177,1.577,0.564,1.577c0.266,0,0.5-0.033,0.706-0.1
				c0.205-0.066,0.396-0.186,0.573-0.357c0.177-0.171,0.332-0.356,0.465-0.556s0.274-0.487,0.423-0.863s0.285-0.744,0.407-1.104
				c0.122-0.359,0.266-0.838,0.432-1.436c0.1-0.321,0.173-0.673,0.219-1.056c0.047-0.384,0.105-0.856,0.174-1.421
				c0.069-0.563,0.113-0.922,0.131-1.075C198.945,56,198.178,56.888,197.426,58.111z M196.43,47.344
				c0.266,0.465,0.614,0.697,1.046,0.697c0.752,0,1.378-0.604,1.876-1.81c0.387-0.952,0.603-1.909,0.647-2.872l1.245-5.528
				c-1.284,0-2.413,0.863-3.387,2.59c-1.052,1.837-1.627,3.082-1.727,3.735C195.92,45.562,196.02,46.625,196.43,47.344z"/>
			<path fill="#FFFFFF" d="M221.681,35.723c0,0.3-0.01,0.706-0.03,1.221c-0.02,0.516-0.087,1.077-0.2,1.687
				c-0.113,0.608-0.25,1.345-0.411,2.209c-0.161,0.865-0.294,1.58-0.399,2.146c-0.105,0.565-0.198,1.061-0.276,1.484
				c-0.079,0.424-0.118,0.731-0.118,0.924c0,0.312,0.004,0.598,0.014,0.858c0.01,0.262,0.039,0.489,0.086,0.684
				c0.048,0.194,0.122,0.345,0.223,0.45s0.247,0.158,0.438,0.158c0.244,0,0.54-0.061,0.888-0.184
				c0.349-0.122,0.72-0.286,1.112-0.491c0.393-0.206,0.794-0.439,1.204-0.7c0.41-0.261,0.8-0.536,1.17-0.824
				c0.371-0.289,0.708-0.575,1.013-0.858c0.305-0.284,0.551-0.548,0.739-0.792c0,0.366,0.003,0.7,0.008,1
				c0.006,0.3,0.008,0.586,0.008,0.858s0.003,0.553,0.008,0.842c0.006,0.289,0.008,0.611,0.008,0.966
				c-0.243,0.24-0.545,0.497-0.905,0.771c-0.359,0.273-0.758,0.546-1.195,0.819c-0.437,0.272-0.902,0.535-1.395,0.786
				c-0.492,0.251-0.988,0.472-1.486,0.663s-0.984,0.344-1.459,0.459c-0.476,0.114-0.916,0.172-1.322,0.172
				c-0.414,0-0.767-0.082-1.061-0.245c-0.293-0.164-0.546-0.394-0.758-0.688c-0.212-0.295-0.392-0.646-0.539-1.057
				c-0.147-0.408-0.275-0.864-0.383-1.366c-0.399,0.514-0.82,0.985-1.264,1.417s-0.895,0.806-1.354,1.122s-0.925,0.565-1.396,0.745
				c-0.471,0.181-0.928,0.271-1.371,0.271c-0.364,0-0.706-0.061-1.025-0.183c-0.319-0.121-0.604-0.326-0.852-0.613
				c-0.248-0.288-0.444-0.667-0.587-1.138c-0.143-0.47-0.215-1.054-0.215-1.75c0.011-1.449,0.122-2.562,0.332-3.336
				c0.331-1.13,0.641-2.813,0.928-5.051c0.03-0.163,0.071-0.387,0.123-0.67c0.052-0.283,0.13-0.591,0.236-0.923
				c0.105-0.332,0.235-0.67,0.39-1.013c0.155-0.343,0.337-0.653,0.548-0.93c0.21-0.276,0.457-0.504,0.739-0.681
				s0.6-0.271,0.955-0.282c0.586,0.028,1.007,0.123,1.262,0.285c0.254,0.162,0.382,0.363,0.382,0.603
				c-0.1,0.746-0.212,1.464-0.335,2.152c-0.125,0.688-0.249,1.382-0.375,2.081c-0.125,0.698-0.265,1.476-0.419,2.331
				s-0.277,1.541-0.37,2.058s-0.168,0.934-0.225,1.252s-0.085,0.483-0.085,0.495c0,0.205,0.02,0.402,0.059,0.591
				c0.039,0.188,0.097,0.356,0.175,0.505c0.078,0.148,0.178,0.269,0.3,0.36c0.122,0.091,0.267,0.137,0.433,0.137
				c0.244,0,0.494-0.064,0.75-0.194c0.255-0.13,0.494-0.318,0.716-0.566c0.233-0.225,0.438-0.519,0.616-0.879
				c0.178-0.349,0.311-0.755,0.4-1.217l1.83-9.047c0.053-0.266,0.27-0.489,0.649-0.673c0.379-0.182,0.81-0.273,1.291-0.273
				c0.545,0,0.978,0.1,1.298,0.299S221.681,35.414,221.681,35.723z"/>
			<path fill="#FFFFFF" d="M242.747,47.082c-0.255,0.358-0.595,0.778-1.021,1.26c-0.426,0.481-0.905,0.939-1.436,1.376
				s-1.102,0.807-1.71,1.108c-0.609,0.302-1.218,0.453-1.826,0.453c-0.735,0-1.349-0.232-1.839-0.698s-0.915-1.143-1.271-2.029
				c-0.268,0.307-0.597,0.618-0.988,0.937c-0.391,0.317-0.817,0.605-1.28,0.862c-0.463,0.258-0.945,0.469-1.448,0.633
				c-0.502,0.164-1.004,0.246-1.506,0.246c-0.531,0-1.049-0.108-1.552-0.326c-0.504-0.218-0.949-0.53-1.336-0.938
				c-0.388-0.407-0.697-0.904-0.93-1.49c-0.232-0.587-0.349-1.248-0.349-1.985c0-0.826,0.117-1.676,0.351-2.547
				s0.596-1.814,1.086-2.829c0.49-1.015,1.016-1.892,1.578-2.631c0.562-0.738,1.177-1.384,1.845-1.935
				c0.668-0.552,1.372-0.99,2.112-1.315c0.741-0.325,1.495-0.488,2.263-0.488c0.256,0,0.457,0.051,0.602,0.151
				c0.145,0.101,0.264,0.215,0.359,0.344c0.094,0.129,0.186,0.254,0.275,0.377c0.089,0.123,0.2,0.213,0.334,0.269
				c0.133,0.057,0.27,0.093,0.409,0.109s0.281,0.025,0.426,0.025c0.123,0,0.248-0.003,0.376-0.009
				c0.128-0.006,0.253-0.009,0.375-0.009c0.167,0,0.323,0.018,0.468,0.051c0.145,0.033,0.273,0.106,0.384,0.218
				c0.111,0.112,0.197,0.269,0.258,0.47c0.061,0.201,0.091,0.476,0.091,0.822c0,0.529-0.056,1.116-0.166,1.761
				c-0.111,0.645-0.238,1.306-0.38,1.982c-0.143,0.677-0.306,1.448-0.488,2.314s-0.274,1.596-0.274,2.189
				c0,0.507,0.047,0.903,0.141,1.189c0.094,0.286,0.296,0.429,0.606,0.429c0.232,0,0.476-0.058,0.73-0.173
				c0.254-0.115,0.512-0.266,0.772-0.452c0.26-0.187,0.52-0.397,0.78-0.634c0.26-0.236,0.506-0.48,0.739-0.732
				c0.542-0.593,1.09-1.262,1.644-2.008L242.747,47.082z M228.504,45.782c0,0.285,0.019,0.562,0.058,0.83s0.108,0.508,0.208,0.719
				c0.1,0.212,0.233,0.383,0.399,0.514c0.167,0.132,0.377,0.197,0.632,0.197c0.41,0,0.782-0.178,1.114-0.535
				c0.333-0.356,0.621-0.785,0.865-1.286c0.244-0.502,0.441-1.02,0.59-1.555c0.15-0.535,0.247-0.98,0.291-1.337l1.238-5.397
				c-0.454,0-0.896,0.112-1.328,0.338c-0.432,0.225-0.838,0.529-1.22,0.913s-0.733,0.822-1.054,1.316
				c-0.321,0.494-0.637,1.103-0.946,1.827c-0.31,0.724-0.529,1.36-0.656,1.908C228.567,44.783,228.504,45.298,228.504,45.782z"/>
		</g>
		<rect x="90.195" y="9.094" fill="#FFFFFF" width="166.112" height="5"/>
		<rect x="91.195" y="68.152" fill="#FFFFFF" width="95.766" height="5"/>
		<g>
			<ellipse fill="#FFFFFF" cx="46.195" cy="49.238" rx="5" ry="4.674"/>
			<path fill="#FFFFFF" d="M7.195,91.302c0-20.65,17.909-37.391,40-37.391c22.092,0,40,16.74,40,37.391H7.195z M81.083,89.744
				c0,0-5-23.367-20-28.041c10,9.348,10,28.041,10,28.041H81.083z"/>
			<g>
				<path fill="#FFFFFF" d="M30.871,21.196c1.375,2.57,1.375,6.776,0,9.347c-1.375,2.571-1.375,6.777,0,9.348s3.625,4.673,5,4.673
					s1.375-2.103,0-4.673s-1.375-6.776,0-9.348c1.375-2.57,1.375-6.776,0-9.347c-1.375-2.571-3.625-4.674-5-4.674
					S29.496,18.625,30.871,21.196z"/>
			</g>
			<g>
				<path fill="#FFFFFF" d="M45.871,11.848c1.375,2.57,1.375,6.777,0,9.348c-1.375,2.57-1.375,6.776,0,9.347
					c1.375,2.571,3.625,4.674,5,4.674s1.375-2.103,0-4.674c-1.375-2.57-1.375-6.776,0-9.347c1.375-2.571,1.375-6.778,0-9.348
					c-1.375-2.571-3.625-4.674-5-4.674S44.496,9.277,45.871,11.848z"/>
			</g>
			<g>
				<path fill="#FFFFFF" d="M60.871,21.196c1.375,2.57,1.375,6.776,0,9.347c-1.375,2.571-1.375,6.777,0,9.348s3.625,4.673,5,4.673
					s1.375-2.103,0-4.673s-1.375-6.776,0-9.348c1.375-2.57,1.375-6.776,0-9.347c-1.375-2.571-3.625-4.674-5-4.674
					S59.496,18.625,60.871,21.196z"/>
			</g>
		</g>
		<g opacity="0.9">
			<path fill="#FFFFFF" d="M110.659,91.19c0,0.608-0.504,1.134-1.134,1.134c-0.567,0-1.008-0.398-1.113-0.902
				c-0.798,0.545-1.806,0.902-2.855,0.902c-2.834,0-5.102-2.394-5.102-5.229c0-2.876,2.268-5.27,5.102-5.27
				c1.029,0,2.037,0.336,2.813,0.882V78.76c0-0.608,0.504-1.134,1.155-1.134c0.63,0,1.134,0.525,1.134,1.134v8.314c0,0,0,0,0,0.021
				V91.19z M105.557,84.115c-0.756,0-1.449,0.314-1.974,0.86c-0.525,0.524-0.84,1.28-0.84,2.12c0,0.799,0.315,1.555,0.84,2.079
				c0.525,0.546,1.218,0.86,1.974,0.86c0.777,0,1.449-0.314,1.974-0.86c0.525-0.524,0.84-1.28,0.84-2.079
				c0-0.84-0.315-1.596-0.84-2.12C107.005,84.429,106.333,84.115,105.557,84.115z"/>
			<path fill="#FFFFFF" d="M113.958,87.075c0.021-2.855,2.247-5.249,5.123-5.249c2.729,0,4.892,2.037,5.06,4.871
				c0,0.021,0,0.063,0,0.105c0,0.041,0,0.146-0.021,0.188c-0.063,0.504-0.504,0.84-1.092,0.84h-6.677
				c0.105,0.483,0.336,1.028,0.714,1.386c0.441,0.504,1.281,0.882,2.016,0.945c0.756,0.063,1.659-0.127,2.184-0.525
				c0.441-0.462,1.302-0.398,1.575-0.063c0.273,0.293,0.483,0.924,0,1.364c-1.029,0.944-2.268,1.386-3.758,1.386
				C116.204,92.302,113.979,89.93,113.958,87.075z M116.246,86.046h5.942c-0.21-0.84-1.281-2.079-3.107-2.227
				C117.296,83.904,116.414,85.185,116.246,86.046z"/>
			<path fill="#FFFFFF" d="M128.783,77.626c0.651,0,1.176,0.525,1.176,1.154v12.389c0,0.629-0.525,1.154-1.176,1.154
				c-0.63,0-1.155-0.525-1.155-1.154V78.781C127.628,78.152,128.153,77.626,128.783,77.626z"/>
			<path fill="#FFFFFF" d="M134.999,79.201c0,0.631-0.483,1.155-1.134,1.155c-0.63,0-1.134-0.524-1.134-1.155v-0.44
				c0-0.63,0.504-1.134,1.134-1.134c0.651,0,1.134,0.504,1.134,1.134V79.201z M134.999,83.001v8.188c0,0.63-0.483,1.134-1.134,1.134
				c-0.63,0-1.134-0.504-1.134-1.134v-8.188c0-0.672,0.504-1.154,1.134-1.154C134.516,81.847,134.999,82.33,134.999,83.001z"/>
			<path fill="#FFFFFF" d="M146.904,83.505l-3.443,8.146c-0.021,0.063-0.063,0.126-0.084,0.146c0,0.021-0.021,0.021-0.021,0.021
				c-0.042,0.042-0.084,0.105-0.126,0.146c0,0.021-0.021,0.021-0.021,0.021c-0.042,0.063-0.084,0.084-0.126,0.126
				c0,0-0.021,0-0.021,0.021c-0.042,0.043-0.084,0.084-0.147,0.105c0,0,0,0-0.042,0c0,0,0,0,0,0.021
				c-0.063,0-0.126,0.021-0.168,0.041c-0.021,0-0.021,0-0.042,0c-0.084,0.021-0.147,0.021-0.21,0.021c-0.042,0-0.105,0-0.189-0.021
				c-0.021,0-0.021,0-0.042,0c-0.063-0.021-0.105-0.041-0.168-0.041c0-0.021,0-0.021,0-0.021c-0.042,0-0.042,0-0.042,0
				c-0.063-0.021-0.105-0.063-0.189-0.105c0-0.021-0.021-0.021-0.021-0.021c-0.042-0.042-0.084-0.063-0.126-0.126
				c-0.021,0-0.021,0-0.042-0.021c-0.021-0.041-0.063-0.104-0.105-0.146c-0.021,0-0.021,0-0.021-0.021
				c-0.042-0.021-0.063-0.084-0.084-0.146l-3.401-8.146c-0.252-0.566,0.021-1.176,0.609-1.428c0.504-0.252,1.155,0.042,1.407,0.609
				l2.415,5.711l2.436-5.711c0.231-0.567,0.861-0.861,1.407-0.609C146.883,82.33,147.156,82.939,146.904,83.505z"/>
			<path fill="#FFFFFF" d="M149.468,87.075c0.021-2.855,2.247-5.249,5.123-5.249c2.729,0,4.892,2.037,5.06,4.871
				c0,0.021,0,0.063,0,0.105c0,0.041,0,0.146-0.021,0.188c-0.063,0.504-0.504,0.84-1.092,0.84h-6.677
				c0.105,0.483,0.336,1.028,0.714,1.386c0.441,0.504,1.281,0.882,2.016,0.945c0.756,0.063,1.659-0.127,2.184-0.525
				c0.441-0.462,1.302-0.398,1.575-0.063c0.273,0.293,0.483,0.924,0,1.364c-1.029,0.944-2.268,1.386-3.758,1.386
				C151.714,92.302,149.489,89.93,149.468,87.075z M151.756,86.046h5.942c-0.21-0.84-1.281-2.079-3.107-2.227
				C152.806,83.904,151.924,85.185,151.756,86.046z"/>
			<path fill="#FFFFFF" d="M169.017,82.939c0,0.588-0.483,1.112-1.113,1.112c-0.483,0-0.903,0.126-1.26,0.399
				c-0.399,0.252-0.714,0.608-0.966,1.008c-0.504,0.672-0.756,1.469-0.861,1.764v3.988c0,0.609-0.525,1.113-1.155,1.113
				c-0.609,0-1.113-0.504-1.113-1.113v-8.271c0-0.609,0.504-1.092,1.113-1.092c0.63,0,1.155,0.482,1.155,1.092v0.146
				c0.126-0.146,0.294-0.314,0.441-0.42c0.693-0.462,1.596-0.84,2.646-0.818C168.534,81.847,169.017,82.33,169.017,82.939z"/>
			<path fill="#FFFFFF" d="M179.685,82.939v4.955v2.98c0,2.814-2.226,5.019-5.018,5.019c-0.756,0-1.533-0.21-2.163-0.524
				c-0.588-0.252-0.798-0.903-0.546-1.491c0.273-0.504,0.987-0.735,1.491-0.462c0.399,0.189,0.798,0.294,1.218,0.294
				c1.239-0.021,2.289-0.819,2.625-1.911c-0.588,0.336-1.302,0.504-1.995,0.504c-2.415,0-4.388-1.994-4.388-4.408v-4.955
				c0-0.631,0.525-1.113,1.092-1.113c0.651,0,1.113,0.482,1.113,1.113v4.955c0,1.217,0.987,2.141,2.184,2.141
				s2.163-0.924,2.163-2.141v-4.955c0-0.631,0.462-1.113,1.092-1.113C179.16,81.826,179.685,82.308,179.685,82.939z"/>
		</g>
	</g>
</g>
</svg>
